<?xml version="1.0" encoding="UTF-8" standalone="no"?>
<svg
   version="1.1"
   viewBox="0 0 108 108"
   id="svg7"
   sodipodi:docname="progres.svg"
   inkscape:version="1.3.2 (091e20ef0f, 2023-11-25, custom)"
   xmlns:inkscape="http://www.inkscape.org/namespaces/inkscape"
   xmlns:sodipodi="http://sodipodi.sourceforge.net/DTD/sodipodi-0.dtd"
   xmlns="http://www.w3.org/2000/svg"
   xmlns:svg="http://www.w3.org/2000/svg">
  <sodipodi:namedview
     id="namedview7"
     pagecolor="#ffffff"
     bordercolor="#000000"
     borderopacity="0.25"
     inkscape:showpageshadow="2"
     inkscape:pageopacity="0.0"
     inkscape:pagecheckerboard="0"
     inkscape:deskcolor="#d1d1d1"
     inkscape:zoom="5.2116389"
     inkscape:cx="36.360923"
     inkscape:cy="49.120825"
     inkscape:window-width="1898"
     inkscape:window-height="1014"
     inkscape:window-x="0"
     inkscape:window-y="0"
     inkscape:window-maximized="1"
     inkscape:current-layer="g7" />
  <defs
     id="defs1">
    <style
       id="style1">
      .cls-1 {
        mask: url(#mask);
      }

      .cls-2 {
        fill: #21a54c;
      }

      .cls-3 {
        fill: #e43d24;
      }

      .cls-4 {
        display: none;
      }
    </style>
    <filter
       id="luminosity-noclip"
       x="45.31"
       y="-8246"
       width="24.07"
       height="32766"
       color-interpolation-filters="sRGB"
       filterUnits="userSpaceOnUse">
      <feFlood
         flood-color="#fff"
         result="bg"
         id="feFlood1" />
      <feBlend
         in="SourceGraphic"
         in2="bg"
         id="feBlend1" />
    </filter>
    <mask
       id="mask"
       x="45.31"
       y="-8246"
       width="24.07"
       height="32766"
       maskUnits="userSpaceOnUse" />
  </defs>
  <!-- Generator: Adobe Illustrator 28.6.0, SVG Export Plug-In . SVG Version: 1.2.0 Build 709)  -->
  <g
     id="g7"
     transform="matrix(2.4375097,0,0,2.4375097,-84.712482,-72.984917)"
     style="stroke-width:0.410255">
    <g
       id="Calque_4"
       style="stroke-width:0.410255"
       transform="translate(0.85791363)">
      <path
         class="cls-2"
         d="m 58.48,35.17 c 0,0 -1.28,2.11 -2.83,3.69 0,0 8.55,-0.34 8.68,7.64 0,0 0.68,10.35 -13.54,8.06 0,0 0.42,0.32 0.42,0.71 0,0.39 -0.64,3.23 -0.85,3.29 0,0 18.55,3.38 19.02,-12.3 0,0 -0.16,-2.46 -0.31,-2.89 0,0 -4.35,-0.36 -7.86,-6.51 0,0 -1.03,1 -2.73,-1.7 z"
         id="path2"
         style="stroke-width:0.410255" />
      <path
         class="cls-2"
         d="m 50.36,58.74 v 11.42 c 0,0 -1.44,-2.44 -1.36,-3.31 0.08,-0.87 0.99,-2.83 0.94,-3.63 -0.05,-0.8 -0.44,-0.63 -0.44,-0.63 l 0.65,-1.67 c 0,0 0.05,-0.63 -0.34,-0.85 l 0.54,-1.33 z"
         id="path3"
         style="stroke-width:0.410255" />
      <path
         class="cls-2"
         d="m 45.31,74.22 h 3.68 c 0,0 -3.18,-4.53 -3.68,-6.09 z"
         id="path4"
         style="stroke-width:0.410255" />
      <path
         class="cls-2"
         d="m 45.31,35.6 c 0,0 2.88,-0.43 3.29,-0.43 0,0 -1.35,1.14 -1.54,1.61 0,0 -0.85,-0.57 -1.75,0.75 z"
         id="path5"
         style="stroke-width:0.410255" />
    </g>
    <g
       id="Calque_2"
       style="stroke-width:0.410255"
       transform="translate(0.85791363)">
      <path
         class="cls-2"
         d="m 50.08,73.76 c -0.56,-0.71 -1.14,-1.5 -1.71,-2.37 -0.98,-1.51 -1.74,-2.96 -2.32,-4.27 -0.2,-0.04 -0.41,-0.1 -0.64,-0.18 C 44.97,66.79 44.6,66.6 44.3,66.43 l 1.23,-0.17 c 0,0 -2.42,-0.9 -2.71,-1.23 0,0 1.35,0.39 2.1,0.29 0,0 -2.13,-1.11 -2.83,-2.54 0,0 1.77,1.09 2.37,1.09 0,0 -2.49,-2.25 -2.66,-3.68 0,0 1.02,1.11 2.2,1.43 0,0 -3.52,-2.72 -3.31,-9.56 0,0 1.05,1.68 1.79,1.95 0,0 -2.31,-2.51 -1.36,-6.52 0,0 0.46,1.43 1.09,1.65 0,0 -1.86,-5.98 4.38,-11.64 0,0 -0.75,1.57 -0.15,3.46 0,0 -0.19,-7.45 12.22,-8.42 -0.76,1.6 -2.07,3.84 -4.28,6 -1.32,1.29 -2.64,2.23 -3.76,2.91 0,0 0.65,0.24 2.73,-1.06 -0.22,3.14 -1.33,4.94 -2.13,5.91 -1.5,1.81 -4.44,3.79 -3.99,3.42 0,0 1.69,-0.1 3.46,-1.38 0,0 -0.24,7.5 -2.66,8.49 0,0 1.38,-0.44 2.13,-1.55 0,0 -0.75,4.09 -2.47,6.31 0,0 0.41,-0.02 1.4,-0.99 -0.16,0.48 -0.34,0.99 -0.55,1.51 -0.38,0.94 -0.78,1.79 -1.18,2.55 0.21,-0.11 0.47,-0.27 0.73,-0.5 0.41,-0.36 0.65,-0.75 0.79,-1.02 -0.06,0.34 -0.17,0.9 -0.39,1.58 -0.23,0.73 -0.36,0.9 -0.44,1.19 -0.56,1.91 1.88,5.14 2.11,6.23 0.03,0.13 0.11,0.54 -0.01,0.61 -0.01,0 -0.03,0.01 -0.05,0 C 49.89,72.72 39.68,55.83 49,39.22 c 0,0 -11.73,14.02 1.08,34.05 0,0.17 0,0.33 0,0.5 z"
         id="path6"
         style="stroke-width:0.410255" />
    </g>
    <g
       id="Calque_5"
       style="stroke-width:0.410255"
       transform="translate(0.85791363)">
      <path
         class="cls-3"
         d="M 70.26,33.95 C 70.11,33.81 69.94,33.7 69.76,33.6 l -6.55,-3.41 c -0.22,-0.11 -0.45,-0.1 -0.57,0.03 -0.12,0.13 -0.11,0.36 0.03,0.57 l 0.85,1.26 c -0.62,0.07 -1.16,0.32 -1.55,0.75 l -0.34,0.38 c -0.34,0.38 -0.9,0.59 -1.39,0.7 -0.28,0.06 -0.57,0.11 -0.88,0.12 -0.11,0 -0.2,0.06 -0.22,0.16 -0.03,0.1 0,0.22 0.09,0.33 l 1.03,1.3 c 0.07,0.09 0.16,0.15 0.26,0.18 0.1,0.03 0.19,0.03 0.26,-0.02 0.68,-0.43 1.05,-1.01 1.26,-1.49 0.11,-0.24 0.2,-0.51 0.24,-0.79 l 0.29,-0.33 c 0.36,-0.4 0.9,-0.61 1.51,-0.62 0.43,0.01 0.9,0.13 1.36,0.36 l 3.73,1.84 c 0.19,0.1 0.32,0.31 0.29,0.47 -0.03,0.16 -0.22,0.22 -0.42,0.12 l -3.73,-1.84 c -0.29,-0.15 -0.59,-0.23 -0.87,-0.26 l 2.35,3.48 c 0.11,0.17 0.25,0.32 0.4,0.46 0.15,0.14 0.32,0.25 0.5,0.35 l 6.55,3.41 c 0.22,0.12 0.45,0.1 0.57,-0.03 0.12,-0.13 0.11,-0.36 -0.03,-0.57 l -4.13,-6.12 c -0.11,-0.17 -0.25,-0.32 -0.4,-0.46 z m -8.16,1.77 c -0.42,0.47 0.78,2.43 2.8,4.23 2.02,1.8 4.1,2.77 4.52,2.3 l 1.45,-2.21 -3.32,-1.73 C 67.29,38.17 67.04,38 66.82,37.8 66.6,37.6 66.4,37.37 66.23,37.13 l -2.09,-3.1 -2.03,1.69 z"
         id="path7"
         style="stroke-width:0.410255" />
    </g>
  </g>
</svg>
